<svg width="40" height="40" viewBox="0 0 40 40" fill="none" xmlns="http://www.w3.org/2000/svg">
<path d="M21.6554 27.0946C21.6554 28.0405 20.9459 28.75 20 28.75C19.0541 28.75 18.3446 28.0405 18.3446 27.0946V21.6554H12.9054C11.9595 21.6554 11.25 20.9459 11.25 20C11.25 19.0541 11.9595 18.3446 12.9054 18.3446H18.3446V12.9054C18.3446 11.9595 19.0541 11.25 20 11.25C20.9459 11.25 21.6554 11.9595 21.6554 12.9054V18.3446H27.0946C28.0405 18.3446 28.75 19.0541 28.75 20C28.75 20.9459 28.0405 21.6554 27.0946 21.6554H21.6554V27.0946Z" fill="white"/>
</svg>
