<svg width="32" height="32" viewBox="0 0 32 32" fill="none" xmlns="http://www.w3.org/2000/svg">
<path d="M23.5817 10.4333C24.1394 9.87665 24.1394 8.97353 23.5817 8.41688C23.0249 7.86104 22.1226 7.86104 21.5657 8.41688L16 13.9723L10.4343 8.41688C9.8774 7.86104 8.97513 7.86104 8.41826 8.41688C7.86058 8.97353 7.86058 9.87665 8.41826 10.4333L13.9953 16L8.41826 21.5667C7.86058 22.1233 7.86058 23.0265 8.41826 23.5831C8.97513 24.139 9.8774 24.139 10.4343 23.5831L16 18.0277L21.5657 23.5831C22.1226 24.139 23.0249 24.139 23.5817 23.5831C24.1394 23.0265 24.1394 22.1233 23.5817 21.5667L18.0047 16L23.5817 10.4333Z" fill="white"/>
</svg>
