<svg width="32" height="32" viewBox="0 0 32 32" fill="none" xmlns="http://www.w3.org/2000/svg">
<path d="M22.7272 11.3884C22.5237 11.5929 22.2036 11.6305 21.9661 11.4667C21.3265 11.0254 20.9319 10.6375 20.533 10.0351C20.3788 9.80221 20.4204 9.4942 20.6174 9.29617L21.4561 8.45326C22.0348 7.88739 22.6916 7.84023 23.2234 8.37467L23.6144 8.76763C24.1461 9.30207 24.1305 9.97798 23.5518 10.5596L22.7272 11.3884ZM11.0246 23.1188C10.7692 23.306 8.78813 23.9676 8.78813 23.9676C8.33458 24.1248 7.83412 23.6847 8.05307 23.1817C8.05307 23.1817 8.61538 21.4599 8.94452 21.0125C9.26131 20.5819 14.5667 14.9225 18.8072 11.0509C19.0714 10.8096 19.4823 10.8501 19.7129 11.1238C20.097 11.5797 20.446 11.9232 20.9098 12.3164C21.172 12.5387 21.2145 12.9303 20.9922 13.1925C16.993 17.9091 11.2715 22.9378 11.0246 23.1188Z" fill="white"/>
</svg>
