<svg width="19" height="20" viewBox="0 0 19 20" fill="none" xmlns="http://www.w3.org/2000/svg">
<path d="M4.35417 5.64648C4.35417 3.67897 5.94915 2.08398 7.91667 2.08398C9.88418 2.08398 11.4792 3.67897 11.4792 5.64648C11.4792 7.614 9.88418 9.20898 7.91667 9.20898C5.94915 9.20898 4.35417 7.614 4.35417 5.64648Z" fill="#172233"/>
<path d="M1.19098 16.2599C1.51735 12.7882 4.15009 10.0007 7.91667 10.0007C11.6832 10.0007 14.316 12.7882 14.6424 16.2599C14.6632 16.4818 14.5896 16.7021 14.4396 16.8669C14.2896 17.0317 14.077 17.1257 13.8542 17.1257H1.97917C1.75632 17.1257 1.54379 17.0317 1.39377 16.8669C1.24374 16.7021 1.17012 16.4818 1.19098 16.2599Z" fill="#172233"/>
<path d="M15.8333 6.83398C15.8333 6.39676 15.4789 6.04232 15.0417 6.04232C14.6044 6.04232 14.25 6.39676 14.25 6.83398V8.41732H12.6667C12.2294 8.41732 11.875 8.77176 11.875 9.20898C11.875 9.64621 12.2294 10.0007 12.6667 10.0007H14.25V11.584C14.25 12.0212 14.6044 12.3757 15.0417 12.3757C15.4789 12.3757 15.8333 12.0212 15.8333 11.584V10.0007H17.4167C17.8539 10.0007 18.2083 9.64621 18.2083 9.20898C18.2083 8.77176 17.8539 8.41732 17.4167 8.41732H15.8333V6.83398Z" fill="#172233"/>
</svg>
