<svg viewBox="0 0 24 24" fill="none" xmlns="http://www.w3.org/2000/svg">
<path fill-rule="evenodd" clip-rule="evenodd" d="M9 11C11.21 11 13 9.21 13 7C13 4.79 11.21 3 9 3C6.79 3 5 4.79 5 7C5 9.21 6.79 11 9 11ZM16.5 11C18.16 11 19.5 9.66 19.5 8C19.5 6.34 18.16 5 16.5 5C14.84 5 13.5 6.34 13.5 8C13.5 9.66 14.84 11 16.5 11ZM9 13C6.33 13 1 14.34 1 17V19C1 19.55 1.45 20 2 20H16C16.55 20 17 19.55 17 19V17C17 14.34 11.67 13 9 13ZM16.5 13C16.16 13 15.78 13.02 15.38 13.06C15.39 13.07 15.39 13.08 15.4 13.09C16.7 13.99 17.5 15.16 17.5 17V20H22C22.55 20 23 19.55 23 19V17C23 14.34 18.84 13 16.5 13Z" fill="currentColor"/>
</svg>
