<svg width="33" height="32" viewBox="0 0 33 32" fill="none" xmlns="http://www.w3.org/2000/svg">
<path d="M16.667 0C25.5032 0.000175641 32.667 7.16374 32.667 16C32.667 24.8363 25.5032 31.9998 16.667 32C7.83063 32 0.666993 24.8364 0.666992 16C0.666992 7.16364 7.83063 0 16.667 0ZM21.8242 10.8428C21.2666 10.2852 20.4306 10.2852 19.873 10.8428L16.667 14.0488L13.4609 10.8428C12.9034 10.2852 12.0664 10.2852 11.5088 10.8428C10.9516 11.4003 10.9515 12.2365 11.5088 12.7939L14.7148 16L11.5088 19.2061C10.9515 19.7635 10.9516 20.5997 11.5088 21.1572C12.0664 21.7148 12.9034 21.7148 13.4609 21.1572L16.667 17.9512L19.873 21.1572C20.4306 21.7148 21.2666 21.7148 21.8242 21.1572C22.3816 20.5997 22.3817 19.7636 21.8242 19.2061L18.6182 16L21.8242 12.7939C22.3817 12.2364 22.3816 11.4003 21.8242 10.8428Z" fill="#D92D20"/>
</svg>
