<svg viewBox="0 0 24 24" fill="none" xmlns="http://www.w3.org/2000/svg">
<path fill-rule="evenodd" clip-rule="evenodd" d="M12 2C7.58 2 4 5.58 4 10V14.5C4 15.33 4.67 16 5.5 16H6.5V19C6.5 19.55 6.95 20 7.5 20H9V21.5C9 21.78 9.22 22 9.5 22H10.5C10.78 22 11 21.78 11 21.5V20H13V21.5C13 21.78 13.22 22 13.5 22H14.5C14.78 22 15 21.78 15 21.5V20H16.5C17.05 20 17.5 19.55 17.5 19V16H18.5C19.33 16 20 15.33 20 14.5V10C20 5.58 16.42 2 12 2ZM9 12C7.9 12 7 11.1 7 10C7 8.9 7.9 8 9 8C10.1 8 11 8.9 11 10C11 11.1 10.1 12 9 12ZM15 12C13.9 12 13 11.1 13 10C13 8.9 13.9 8 15 8C16.1 8 17 8.9 17 10C17 11.1 16.1 12 15 12ZM12 17C11.45 17 11 16.55 11 16V14C11 13.45 11.45 13 12 13C12.55 13 13 13.45 13 14V16C13 16.55 12.55 17 12 17Z" fill="currentColor"/>
</svg>
