<svg width="28" height="28" viewBox="0 0 28 28" fill="none" xmlns="http://www.w3.org/2000/svg">
<path fill-rule="evenodd" clip-rule="evenodd" d="M4.13343 0.284702C6.16501 0.146607 9.39371 0 14 0C18.6063 0 21.835 0.146012 23.8666 0.284702C25.8981 0.423988 27.5134 1.93 27.6945 3.94607C27.8494 5.6781 28 8.29298 28 11.9134C28 15.5338 27.8494 18.1487 27.6945 19.8807C27.514 21.8968 25.8981 23.4028 23.8666 23.5421C21.9171 23.6753 18.8664 23.8152 14.5538 23.8262L10.0346 27.6293C9.02531 28.4785 7.46664 27.7747 7.46664 26.4698V23.7144C6.35476 23.6737 5.24355 23.6163 4.13343 23.5421C2.10185 23.4028 0.485951 21.8968 0.305538 19.8807C0.150587 18.1487 0 15.5339 0 11.9134C0 8.29292 0.150587 5.6781 0.305538 3.94607C0.485951 1.93 2.10191 0.423988 4.13343 0.284702ZM12.6193 5.92191C13.1998 4.8228 14.8002 4.8228 15.3807 5.92191L16.6525 8.32958L19.3766 8.85625C20.5613 9.08536 21.0398 10.4948 20.2328 11.3764L18.2833 13.5049L18.6393 16.3367C18.7911 17.5463 17.5112 18.4346 16.4005 17.8903L14 16.7136L11.5989 17.8903C10.4888 18.434 9.20827 17.5457 9.36073 16.3367L9.71665 13.5049L7.76721 11.3764C6.9602 10.4948 7.43869 9.08536 8.62338 8.85625L11.3469 8.32958L12.6193 5.92191Z" fill="#7E53F8"/>
</svg>
