<svg width="28" height="28" viewBox="0 0 28 28" fill="none" xmlns="http://www.w3.org/2000/svg">
<path d="M4.37533 16.6795C4.37533 16.2117 4.76154 15.8406 5.22629 15.7561C5.47389 15.7111 5.71459 15.6469 5.94705 15.5654C6.64491 15.3206 7.58366 15.7637 7.58366 16.4967C7.6999 18.4124 7.69407 19.4803 7.58366 21.3381C7.58366 21.8059 7.96671 22.1851 8.43922 22.1851C12.7791 21.8883 15.2144 21.8897 19.5614 22.1851C20.0339 22.1851 20.417 21.8059 20.417 21.3381C20.2978 19.4502 20.2726 18.3849 20.417 16.4991C20.417 15.7657 21.3575 15.3217 22.0558 15.5661C22.2877 15.6473 22.5277 15.7112 22.7744 15.756C23.2391 15.8405 23.6253 16.2117 23.6253 16.6795C23.7636 19.7517 23.7552 21.4319 23.6253 24.5144C23.6253 24.9822 23.2423 25.3614 22.7698 25.3614C15.2454 25.7765 11.4539 25.7604 5.23088 25.3614C4.75837 25.3614 4.37533 24.9822 4.37533 24.5144C4.22974 21.4694 4.21921 19.7246 4.37533 16.6795ZM22.5559 3.12734C24.6948 4.186 26.8337 9.31478 26.8337 11.0681C26.8337 12.8214 25.3963 14.2444 23.6253 14.2444C21.8543 14.2444 20.417 12.8214 20.417 11.0681C20.417 12.8214 18.9797 14.2444 17.2087 14.2444C15.4377 14.2444 14.0003 12.8214 14.0003 11.0681C14.0003 12.8214 12.563 14.2444 10.792 14.2444C9.02099 14.2444 7.58366 12.8214 7.58366 11.0681C7.58366 12.8214 6.14633 14.2444 4.37533 14.2444C2.60433 14.2444 1.16699 12.8214 1.16699 11.0681C1.16699 9.31478 3.30588 4.18591 5.44477 3.12734C7.58366 2.06877 20.417 2.06867 22.5559 3.12734Z" fill="white"/>
</svg>
