<svg viewBox="0 0 24 24" fill="none" xmlns="http://www.w3.org/2000/svg">
<path fill-rule="evenodd" clip-rule="evenodd" d="M16.95 3.46L20.54 7.05C21.12 7.63 21.12 8.58 20.54 9.16L17.71 11.99L18.42 16.24L16.71 17.95L11.05 12.29L4.6 18.74L4 14.5L9 9.5L7 7.5L9 5.5L13.25 6.21L16.08 3.38C16.66 2.8 17.61 2.8 18.19 3.38L16.95 3.46Z" fill="currentColor"/>
<path d="M14.83 5.5L13.06 7.27L11.91 7.08L9.83 7.42L11 8.59L7.41 12.18L11.82 16.59L15.41 13L16.58 14.17L16.92 12.09L16.73 10.94L18.5 9.17L14.83 5.5Z" fill="currentColor"/>
</svg>
