<svg viewBox="0 0 24 24" fill="none" xmlns="http://www.w3.org/2000/svg">
<path fill-rule="evenodd" clip-rule="evenodd" d="M3 10V14C3 14.55 3.45 15 4 15H7L11.29 19.29C11.92 19.92 13 19.47 13 18.59V5.41C13 4.53 11.92 4.08 11.29 4.71L7 9H4C3.45 9 3 9.45 3 10ZM16.5 12C16.5 10.23 15.48 8.71 14 7.97V16.02C15.48 15.29 16.5 13.77 16.5 12ZM14 4.45V4.65C14 5.03 14.25 5.36 14.6 5.5C17.18 6.53 19 9.06 19 12C19 14.94 17.18 17.47 14.6 18.5C14.24 18.64 14 18.97 14 19.35V19.55C14 20.18 14.63 20.62 15.21 20.4C18.6 19.11 21 15.84 21 12C21 8.16 18.6 4.89 15.21 3.6C14.63 3.37 14 3.82 14 4.45Z" fill="currentColor"/>
</svg>
