<svg viewBox="0 0 24 24" fill="none" xmlns="http://www.w3.org/2000/svg">
<path fill-rule="evenodd" clip-rule="evenodd" d="M12 2C6.48 2 2 6.48 2 12C2 17.52 6.48 22 12 22C17.52 22 22 17.52 22 12C22 6.48 17.52 2 12 2ZM12 18C11.31 18 10.75 17.44 10.75 16.75C10.75 16.06 11.31 15.5 12 15.5C12.69 15.5 13.25 16.06 13.25 16.75C13.25 17.44 12.69 18 12 18ZM13.6 12.74C13 13.13 12.85 13.4 12.85 13.85V14C12.85 14.55 12.4 15 11.85 15H11.85C11.3 15 10.85 14.55 10.85 14V13.85C10.85 12.66 11.34 11.97 12.27 11.36C13.13 10.8 13.5 10.43 13.5 9.65C13.5 8.99 13 8.5 12 8.5C11.21 8.5 10.65 8.85 10.36 9.55C10.21 9.92 9.86 10.15 9.46 10.15H9.4C8.71 10.15 8.23 9.42 8.51 8.79C9.07 7.5 10.27 6.5 12 6.5C14 6.5 15.5 7.79 15.5 9.6C15.5 11.13 14.65 12.05 13.6 12.74Z" fill="currentColor"/>
</svg>
