<svg width="18" height="18" viewBox="0 0 18 18" fill="none" xmlns="http://www.w3.org/2000/svg">
<path fill-rule="evenodd" clip-rule="evenodd" d="M3.1875 9C3.1875 5.78984 5.78984 3.1875 9 3.1875C12.2102 3.1875 14.8125 5.78984 14.8125 9C14.8125 12.2102 12.2102 14.8125 9 14.8125C5.78984 14.8125 3.1875 12.2102 3.1875 9ZM9 5.0625C9.51777 5.0625 9.9375 5.48223 9.9375 6V8.61167L11.5379 10.2121C11.904 10.5782 11.904 11.1718 11.5379 11.5379C11.1718 11.904 10.5782 11.904 10.2121 11.5379L8.33709 9.66291C8.16127 9.4871 8.0625 9.24864 8.0625 9V6C8.0625 5.48223 8.48223 5.0625 9 5.0625Z" fill="#172233"/>
<path fill-rule="evenodd" clip-rule="evenodd" d="M3.1875 9C3.1875 5.78984 5.78984 3.1875 9 3.1875C12.2102 3.1875 14.8125 5.78984 14.8125 9C14.8125 12.2102 12.2102 14.8125 9 14.8125C5.78984 14.8125 3.1875 12.2102 3.1875 9ZM9 1.3125C4.75431 1.3125 1.3125 4.75431 1.3125 9C1.3125 13.2457 4.75431 16.6875 9 16.6875C13.2457 16.6875 16.6875 13.2457 16.6875 9C16.6875 4.75431 13.2457 1.3125 9 1.3125Z" fill="#172233"/>
</svg>
