<svg width="22" height="21" viewBox="0 0 22 21" fill="none" xmlns="http://www.w3.org/2000/svg">
<g id="icon-share">
<g id="Vector">
<path d="M15.125 8.74981H14.25C13.7668 8.74981 13.375 9.14156 13.375 9.62481C13.375 10.1081 13.7668 10.4998 14.25 10.4998H15.125V16.6248C15.125 17.1081 14.7332 17.4998 14.25 17.4998H7.25C6.76675 17.4998 6.375 17.1081 6.375 16.6248V10.4998H7.25C7.73325 10.4998 8.125 10.1081 8.125 9.62481C8.125 9.14156 7.73325 8.74981 7.25 8.74981H6.375C5.91087 8.74981 5.46575 8.93419 5.13756 9.26238C4.80937 9.59057 4.625 10.0357 4.625 10.4998V16.8115C4.625 17.2756 5.60931 18.0466 5.9375 18.3748C6.26569 18.703 6.18451 19.2498 6.64864 19.2498L14.7068 19.2267C15.1709 19.2267 15.6718 18.2655 16 17.9373C16.3282 17.6091 16.875 17.2288 16.875 16.7646V10.4998C16.875 10.0357 16.6906 9.59057 16.3624 9.26238C16.0342 8.93419 15.5891 8.74981 15.125 8.74981Z" fill="white"/>
<path d="M6.8125 19.2498C5.60438 19.2498 4.625 18.2704 4.625 17.0623V16.6248L6.8125 19.2498Z" fill="white"/>
<path d="M14.6875 19.2498C15.8956 19.2498 16.875 18.2704 16.875 17.0623V16.6248L14.6875 19.2498Z" fill="white"/>
<path d="M9.875 4.73706V13.1248C9.875 13.6081 10.2668 13.9998 10.75 13.9998C11.2332 13.9998 11.625 13.6081 11.625 13.1248V4.73706L13.0127 6.12481C13.3544 6.46647 13.9083 6.46647 14.25 6.12481C14.5917 5.78316 14.5917 5.22922 14.25 4.88756L11.3686 2.00619C11.2045 1.84215 10.982 1.75 10.75 1.75C10.518 1.75 10.2955 1.84215 10.1314 2.00619L7.25 4.88756C6.90834 5.22922 6.90834 5.78316 7.25 6.12481C7.59166 6.46647 8.14559 6.46647 8.48725 6.12481L9.875 4.73706Z" fill="white"/>
</g>
</g>
</svg>
