<svg width="18" height="18" viewBox="0 0 18 18" fill="none" xmlns="http://www.w3.org/2000/svg">
<path fill-rule="evenodd" clip-rule="evenodd" d="M0.75 9C0.75 8.40326 0.978273 7.83097 1.3846 7.40901C1.79093 6.98705 2.34203 6.75 2.91667 6.75C3.4913 6.75 4.0424 6.98705 4.44873 7.40901C4.85506 7.83097 5.08333 8.40326 5.08333 9C5.08333 9.59674 4.85506 10.169 4.44873 10.591C4.0424 11.0129 3.4913 11.25 2.91667 11.25C2.34203 11.25 1.79093 11.0129 1.3846 10.591C0.978273 10.169 0.75 9.59674 0.75 9ZM9 6.75C8.42536 6.75 7.87426 6.98705 7.46794 7.40901C7.06161 7.83097 6.83333 8.40326 6.83333 9C6.83333 9.59674 7.06161 10.169 7.46794 10.591C7.87426 11.0129 8.42536 11.25 9 11.25C9.57464 11.25 10.1257 11.0129 10.5321 10.591C10.9384 10.169 11.1667 9.59674 11.1667 9C11.1667 8.40326 10.9384 7.83097 10.5321 7.40901C10.1257 6.98705 9.57464 6.75 9 6.75ZM15.0833 6.75C14.5087 6.75 13.9576 6.98705 13.5513 7.40901C13.1449 7.83097 12.9167 8.40326 12.9167 9C12.9167 9.59674 13.1449 10.169 13.5513 10.591C13.9576 11.0129 14.5087 11.25 15.0833 11.25C15.658 11.25 16.2091 11.0129 16.6154 10.591C17.0217 10.169 17.25 9.59674 17.25 9C17.25 8.40326 17.0217 7.83097 16.6154 7.40901C16.2091 6.98705 15.658 6.75 15.0833 6.75Z" fill="white"/>
</svg>
