<svg width="24" height="24" viewBox="0 0 24 24" fill="none" xmlns="http://www.w3.org/2000/svg">
<path fill-rule="evenodd" clip-rule="evenodd" d="M10.0265 2.96815C9.99881 3.12501 9.97963 3.3002 9.97963 3.48498C9.97963 3.66976 9.99881 3.84495 10.0265 4.00181C10.105 4.4464 10.4374 4.74364 10.8301 4.86173C9.88485 5.12412 9.0043 5.54213 8.21785 6.08645C8.00728 5.87929 7.82616 5.70472 7.67104 5.55796C7.11748 5.03425 6.29325 4.89386 5.66962 5.41485C5.53611 5.52638 5.39259 5.65642 5.24141 5.8076C5.09024 5.95878 4.9602 6.10228 4.84866 6.2358C4.32768 6.85945 4.46807 7.68365 4.99178 8.23721C5.16337 8.41859 5.37297 8.63552 5.62822 8.89344C4.88778 10.173 4.46398 11.6587 4.46398 13.2434C4.46398 13.3689 4.46664 13.4938 4.4719 13.618H7.12932C8.30097 13.618 9.25072 14.5678 9.25072 15.7394C9.25072 15.9432 9.22199 16.1402 9.16837 16.3267C10.2936 16.3789 11.1898 17.3077 11.1898 18.4458C11.1898 18.6551 11.1595 18.8573 11.1031 19.0483C12.1426 19.1851 12.945 20.0746 12.945 21.1514C12.945 21.4277 12.8921 21.6916 12.7961 21.9336C12.9173 21.9386 13.0392 21.9412 13.1617 21.9412C17.9653 21.9412 21.8595 18.047 21.8595 13.2434C21.8595 11.6587 21.4357 10.173 20.6952 8.89344C20.9535 8.63251 21.165 8.4135 21.3376 8.23085C21.8576 7.68098 21.9984 6.86301 21.4809 6.24271C21.3681 6.1075 21.2361 5.96168 21.082 5.8076C20.9279 5.65352 20.7821 5.52151 20.6469 5.4087C20.0266 4.89125 19.2087 5.03202 18.6587 5.55195C18.5022 5.69995 18.319 5.87645 18.1056 6.08645C17.3191 5.54213 16.4386 5.12412 15.4933 4.86173C15.886 4.74364 16.2184 4.4464 16.2969 4.00181C16.3246 3.84495 16.3438 3.66976 16.3438 3.48498C16.3438 3.3002 16.3246 3.12501 16.2969 2.96815C16.1981 2.40871 15.6974 2.08259 15.1802 2.05312C14.7125 2.02648 14.0295 2 13.1617 2C12.294 2 11.6109 2.02648 11.1432 2.05312C10.6261 2.08259 10.1253 2.40871 10.0265 2.96815ZM11.41 21.7647C11.5715 21.6102 11.6721 21.3926 11.6721 21.1514C11.6721 20.6828 11.2922 20.3029 10.8236 20.3029H6.68315C6.21451 20.3029 5.8346 20.6828 5.8346 21.1514C5.8346 21.6201 6.21451 22 6.68315 22H10.8236C11.0511 22 11.2576 21.9104 11.41 21.7647ZM6.91378 19.2944H4.92803C4.45938 19.2944 4.07947 18.9145 4.07947 18.4458C4.07947 17.9772 4.45938 17.5972 4.92803 17.5972H9.06845C9.53706 17.5972 9.91701 17.9772 9.91701 18.4458C9.91701 18.6722 9.82833 18.8779 9.68387 19.03C9.52926 19.1928 9.31071 19.2944 9.06845 19.2944H6.91378ZM5.13026 16.5879H2.98894C2.52029 16.5879 2.14038 16.208 2.14038 15.7394C2.14038 15.2707 2.52029 14.8908 2.98894 14.8908H7.12932C7.59798 14.8908 7.97788 15.2707 7.97788 15.7394C7.97788 15.9662 7.88891 16.1722 7.74397 16.3244C7.58941 16.4867 7.3712 16.5879 7.12932 16.5879H5.13026ZM16.7313 16.8134C17.0626 16.482 17.0626 15.9447 16.7313 15.6134L14.0099 12.8919V9.00062C14.0099 8.53196 13.63 8.15206 13.1613 8.15206C12.6926 8.15206 12.3127 8.53196 12.3127 9.00062V13.2434C12.3127 13.4685 12.4021 13.6843 12.5613 13.8434L15.5312 16.8134C15.8626 17.1448 16.3999 17.1448 16.7313 16.8134Z" fill="#6C7B93"/>
</svg>
