<svg viewBox="0 0 24 24" fill="none" xmlns="http://www.w3.org/2000/svg">
<path fill-rule="evenodd" clip-rule="evenodd" d="M12 1C5.92 1 1 5.92 1 12C1 18.08 5.92 23 12 23C18.08 23 23 18.08 23 12C23 5.92 18.08 1 12 1ZM12.88 18.04V19C12.88 19.55 12.43 20 11.88 20C11.33 20 10.88 19.55 10.88 19V18.04C9.27 17.79 7.94 16.74 7.4 15.21C7.21 14.66 7.55 14.06 8.13 13.93C8.6 13.83 9.06 14.1 9.21 14.55C9.59 15.66 10.66 16.41 12.06 16.41C13.61 16.41 14.16 15.65 14.16 14.94C14.16 13.99 13.65 13.08 11.36 12.54C8.78 11.92 7.01 10.85 7.01 8.72C7.01 6.94 8.43 5.78 10.16 5.39V4.42C10.16 3.87 10.61 3.42 11.16 3.42H11.84C12.39 3.42 12.84 3.87 12.84 4.42V5.41C14.32 5.77 15.27 6.71 15.69 7.91C15.88 8.46 15.55 9.05 14.97 9.18C14.51 9.28 14.05 9.05 13.88 8.61C13.62 7.91 13.05 7.43 11.96 7.43C10.62 7.43 9.91 8.06 9.91 8.74C9.91 9.51 10.55 10.05 12.71 10.61C15.36 11.32 17.06 12.36 17.06 14.93C17.06 16.92 15.49 17.81 12.88 18.04Z" fill="currentColor"/>
</svg>
