<svg viewBox="0 0 24 24" fill="none" xmlns="http://www.w3.org/2000/svg">
<path fill-rule="evenodd" clip-rule="evenodd" d="M2 3.5C2 3.22 2.22 3 2.5 3H4.5C4.97 3 5.36 3.32 5.46 3.78L5.71 5H20.5C21.07 5 21.49 5.54 21.36 6.1L19.36 14.1C19.27 14.46 18.95 14.71 18.58 14.71H7.84L8.16 16.29H18.5C18.78 16.29 19 16.51 19 16.79V17.5C19 17.78 18.78 18 18.5 18H7.5C7.03 18 6.64 17.68 6.54 17.22L4.18 5H2.5C2.22 5 2 4.78 2 4.5V3.5ZM8 21C8.83 21 9.5 20.33 9.5 19.5C9.5 18.67 8.83 18 8 18C7.17 18 6.5 18.67 6.5 19.5C6.5 20.33 7.17 21 8 21ZM18 21C18.83 21 19.5 20.33 19.5 19.5C19.5 18.67 18.83 18 18 18C17.17 18 16.5 18.67 16.5 19.5C16.5 20.33 17.17 21 18 21Z" fill="currentColor"/>
</svg>
