<svg width="21" height="22" viewBox="0 0 21 22" fill="none" xmlns="http://www.w3.org/2000/svg">
<path fill-rule="evenodd" clip-rule="evenodd" d="M6.125 2.25C6.81535 2.25 7.375 2.80964 7.375 3.5V4.75H13.6251V3.5C13.6251 2.80964 14.1848 2.25 14.8751 2.25C15.5655 2.25 16.1251 2.80964 16.1251 3.5V4.75H17.375C18.4105 4.75 19.25 5.58946 19.25 6.625V17.875C19.25 18.9105 18.4105 19.75 17.375 19.75H3.625C2.58947 19.75 1.75 18.9105 1.75 17.875V6.625C1.75 5.58946 2.58947 4.75 3.625 4.75H4.875V3.5C4.875 2.80964 5.43465 2.25 6.125 2.25ZM5.5 9.4375C5.32741 9.4375 5.1875 9.57741 5.1875 9.75V13.5C5.1875 13.6726 5.32741 13.8125 5.5 13.8125H9.25C9.42259 13.8125 9.5625 13.6726 9.5625 13.5V9.75C9.5625 9.57741 9.42259 9.4375 9.25 9.4375H5.5Z" fill="white"/>
</svg>
