<svg xmlns="http://www.w3.org/2000/svg" viewBox="0 0 24 24" width="24" height="24" fill="currentColor">
  <!-- Hand-traced from Jamble-iOS Assets.xcassets/icon-camera-add.imageset/icon-camera-add.pdf -->
  <!-- Reference: ShowHostViewController.swift:910 UIImage(named: "icon-camera-add") -->
  <path d="M9.6 4 L8 6 L4.5 6 C3.4 6 2.5 6.9 2.5 8 L2.5 17 C2.5 18.1 3.4 19 4.5 19 L19.5 19 C20.6 19 21.5 18.1 21.5 17 L21.5 8 C21.5 6.9 20.6 6 19.5 6 L16 6 L14.4 4 Z M12 16.5 C9.5 16.5 7.5 14.5 7.5 12 C7.5 9.5 9.5 7.5 12 7.5 C14.5 7.5 16.5 9.5 16.5 12 C16.5 14.5 14.5 16.5 12 16.5 Z"/>
  <circle cx="19" cy="6.5" r="3.5" fill="currentColor"/>
  <path d="M19 4.5 L19 8.5 M17 6.5 L21 6.5" stroke="#162233" stroke-width="0.9" stroke-linecap="round"/>
</svg>
