<svg width="32" height="32" viewBox="0 0 32 32" fill="none" xmlns="http://www.w3.org/2000/svg">
<path d="M4.83327 8.18353C6.47792 8.1676 7.41877 8.16878 8.93938 8.18353C9.10658 8.18353 9.26456 8.09123 9.34813 7.94354C9.51988 7.26826 11.7946 4.53416 13.3335 4.22285C15.3564 3.90758 16.5295 3.94442 18.6287 4.22285C20.1092 4.57507 22.3438 7.28533 22.6141 7.94354C22.6977 8.09123 22.8556 8.18353 23.0229 8.18353C24.956 8.13345 25.4976 8.16482 27.129 8.18353C28.9219 8.18353 29.7538 9.50962 30.3804 11.4149C31.007 13.3201 31.3847 19.2226 30.3804 24.3125C30.0222 26.1279 28.9219 27.5439 27.129 27.5439C18.4875 28.1445 13.49 28.1595 4.83327 27.5439C3.04034 27.5439 2.04627 26.159 1.58182 24.3125C0.545778 19.5924 1.11737 13.289 1.58182 11.4149C2.04627 9.54073 3.04034 8.18353 4.83327 8.18353ZM15.9811 23.8602C19.3069 23.8602 22.0195 21.1735 22.0195 17.8591C22.0195 14.5539 19.3069 11.8581 15.9811 11.8581C12.6553 11.8581 9.9427 14.5539 9.9427 17.8591C9.9427 21.1735 12.6553 23.8602 15.9811 23.8602Z" fill="white"/>
<path fill-rule="evenodd" clip-rule="evenodd" d="M19.237 18.7619C18.8679 20.3579 17.5575 21.5385 16 21.5385C15.539 21.5385 15.1649 21.1249 15.1649 20.6154C15.1649 20.1058 15.539 19.6923 16 19.6923C16.6289 19.6923 17.1767 19.3074 17.4615 18.7397C17.322 18.7 17.1892 18.6197 17.0798 18.4988C16.7541 18.1388 16.7541 17.5535 17.0798 17.1935L17.915 16.2705C18.2407 15.9095 18.7701 15.9095 19.0958 16.2705L19.931 17.1935C20.2567 17.5535 20.2567 18.1388 19.931 18.4988C19.7414 18.7083 19.4833 18.796 19.237 18.7619ZM14.5385 16.9526C14.678 16.9923 14.8108 17.0726 14.9202 17.1935C15.2459 17.5535 15.2459 18.1388 14.9202 18.4988L14.085 19.4218C13.7593 19.7828 13.2299 19.7828 12.9042 19.4218L12.069 18.4988C11.7433 18.1388 11.7433 17.5535 12.069 17.1935C12.2586 16.984 12.5167 16.8963 12.763 16.9305C13.1321 15.3345 14.4425 14.1538 16 14.1538C16.461 14.1538 16.8351 14.5674 16.8351 15.0769C16.8351 15.5865 16.461 16 16 16C15.3711 16 14.8233 16.3849 14.5385 16.9526Z" fill="white"/>
</svg>
