<svg width="32" height="32" viewBox="0 0 32 32" fill="none" xmlns="http://www.w3.org/2000/svg">
<path d="M10.988 24.6418C9.04228 24.6418 7.99994 23.6358 7.99994 21.7091C7.76805 18.436 7.73703 16.6488 7.99994 13.6104C7.99994 11.7008 9.04228 10.6778 10.988 10.6778H12.7998C13.3319 10.6778 13.7632 11.1091 13.7632 11.6411C13.7632 12.1731 13.3319 12.6044 12.7998 12.6044H11.0054C10.2931 12.6044 9.94565 12.9454 9.94565 13.6786C9.89751 16.9732 9.91001 18.6705 9.94565 21.658C9.94565 22.3912 10.2931 22.7492 11.0054 22.7492C14.8164 22.8087 16.9887 22.8082 20.9771 22.7492C21.6894 22.7492 22.0542 22.3912 22.0542 21.658C22.1345 18.4866 22.1485 16.732 22.0542 13.6786C22.0542 12.9625 21.6894 12.6044 20.9771 12.6044H19.2C18.668 12.6044 18.2367 12.1731 18.2367 11.6411C18.2367 11.1091 18.668 10.6778 19.2 10.6778H20.9945C22.975 10.6778 23.9999 11.6837 23.9999 13.6104C24.1879 16.7734 24.1652 18.5462 23.9999 21.7091C23.9999 23.6358 22.9576 24.6418 20.9945 24.6418C17.0861 24.8342 14.9021 24.8305 10.988 24.6418Z" fill="white"/>
<path d="M15.9913 18.9475C15.4701 18.9475 15.0358 18.5383 15.0358 18.0268C14.977 14.3801 14.9704 12.3356 15.0358 8.68888H12.9511C12.4473 8.68888 12.0825 8.24552 12.0825 7.75107C12.0825 7.49531 12.1519 7.29071 12.3778 7.10315L15.2964 4.32396C15.5222 4.1023 15.748 4 15.9913 4C16.2171 4 16.4429 4.1023 16.6688 4.32396L19.6047 7.10315C19.8132 7.29071 19.9 7.49531 19.9 7.75107C19.9 8.24552 19.5352 8.68888 19.0141 8.68888H16.9467C16.9948 12.3058 16.9881 14.3518 16.9467 18.0268C16.9467 18.5383 16.5124 18.9475 15.9913 18.9475Z" fill="white"/>
<path fill-rule="evenodd" clip-rule="evenodd" d="M10.1956 13.6823C10.1475 16.9738 10.16 18.6688 10.1956 21.655L10.1957 21.658C10.1956 21.9893 10.2744 22.1876 10.3878 22.3044C10.4998 22.4197 10.6881 22.4992 11.0054 22.4992H11.0093C14.8177 22.5587 16.9874 22.5581 20.9734 22.4992L20.9771 22.4992C21.2944 22.4992 21.4887 22.4197 21.6056 22.3022C21.7227 22.1845 21.8042 21.9863 21.8042 21.658V21.6517C21.8844 18.4834 21.8984 16.7337 21.8043 13.6863L21.8041 13.6786C21.8041 13.3603 21.7234 13.1664 21.6066 13.0503C21.4895 12.934 21.2944 12.8544 20.9771 12.8544H19.2C18.5299 12.8544 17.9867 12.3112 17.9867 11.6411C17.9867 10.971 18.5299 10.4278 19.2 10.4278H20.9945C22.0243 10.4278 22.8485 10.6895 23.4146 11.2428C23.9804 11.7956 24.2486 12.6005 24.2499 13.6029C24.438 16.7703 24.4151 18.552 24.2499 21.7157C24.2487 22.7196 23.9756 23.5246 23.4077 24.0771C22.8409 24.6287 22.0195 24.8907 21.0007 24.8918C17.0897 25.0842 14.8981 25.0805 10.9819 24.8918C9.97123 24.8907 9.15406 24.6284 8.58959 24.0768C8.02469 23.5247 7.75156 22.7209 7.74994 21.7181C7.51824 18.4451 7.48685 16.6452 7.74995 13.5995C7.75193 12.6055 8.02535 11.8029 8.58921 11.2495C9.15436 10.6949 9.97344 10.4278 10.988 10.4278H12.7998C13.4699 10.4278 14.0132 10.971 14.0132 11.6411C14.0132 12.3112 13.4699 12.8544 12.7998 12.8544H11.0054C10.685 12.8544 10.4967 12.9312 10.3857 13.0429C10.2744 13.1548 10.1956 13.3472 10.1956 13.6786L10.1956 13.6823ZM7.99994 13.6104C7.73703 16.6488 7.76805 18.436 7.99994 21.7091C7.99994 23.6358 9.04228 24.6418 10.988 24.6418C14.9021 24.8305 17.0861 24.8342 20.9945 24.6418C22.9576 24.6418 23.9999 23.6358 23.9999 21.7091C24.1652 18.5462 24.1879 16.7734 23.9999 13.6104C23.9999 11.6837 22.975 10.6778 20.9945 10.6778H19.2C18.668 10.6778 18.2367 11.1091 18.2367 11.6411C18.2367 12.1731 18.668 12.6044 19.2 12.6044H20.9771C21.6894 12.6044 22.0542 12.9625 22.0542 13.6786C22.1485 16.732 22.1345 18.4866 22.0542 21.658C22.0542 22.3912 21.6894 22.7492 20.9771 22.7492C16.9887 22.8082 14.8164 22.8087 11.0054 22.7492C10.2931 22.7492 9.94565 22.3912 9.94565 21.658C9.91001 18.6705 9.89751 16.9732 9.94565 13.6786C9.94565 12.9454 10.2931 12.6044 11.0054 12.6044H12.7998C13.3319 12.6044 13.7632 12.1731 13.7632 11.6411C13.7632 11.1091 13.3319 10.6778 12.7998 10.6778H10.988C9.04228 10.6778 7.99994 11.7008 7.99994 13.6104ZM14.7858 18.0289C14.7284 14.4668 14.7207 12.4308 14.7813 8.93888H12.9511C12.2834 8.93888 11.8325 8.35625 11.8325 7.75107C11.8325 7.6007 11.8529 7.44977 11.9156 7.30318C11.9779 7.15756 12.0759 7.03042 12.2112 6.91654L15.1226 4.14417C15.3825 3.88963 15.6676 3.75 15.9913 3.75C16.2997 3.75 16.5845 3.89158 16.8422 4.1439L19.7744 6.91951C20.0332 7.15339 20.15 7.42459 20.15 7.75107C20.15 8.3597 19.696 8.93888 19.0141 8.93888H17.2C17.2445 12.402 17.2371 14.4392 17.1967 18.0282C17.1959 18.6874 16.6395 19.1975 15.9913 19.1975C15.3432 19.1975 14.787 18.6877 14.7858 18.0289ZM16.9467 18.0268C16.9872 14.4373 16.9945 12.4019 16.95 8.93888C16.9489 8.85637 16.9479 8.77305 16.9467 8.68888H19.0141C19.5352 8.68888 19.9 8.24552 19.9 7.75107C19.9 7.49531 19.8132 7.29071 19.6047 7.10315L16.6688 4.32396C16.4429 4.1023 16.2171 4 15.9913 4C15.748 4 15.5222 4.1023 15.2964 4.32396L12.3778 7.10315C12.1519 7.29071 12.0825 7.49531 12.0825 7.75107C12.0825 8.24552 12.4473 8.68888 12.9511 8.68888H15.0358C15.0343 8.77306 15.0328 8.85638 15.0314 8.93888C14.9707 12.4308 14.9783 14.4643 15.0358 18.0268C15.0358 18.5383 15.4701 18.9475 15.9913 18.9475C16.5124 18.9475 16.9467 18.5383 16.9467 18.0268Z" fill="white"/>
</svg>
