<svg width="40" height="40" viewBox="0 0 40 40" fill="none" xmlns="http://www.w3.org/2000/svg">
<path d="M12.6009 11.5769C13.4374 14.0655 14.0819 15.4794 15.5028 18.0258C15.7267 18.5235 16.2107 18.8645 16.7676 18.917C19.7241 19.057 21.3739 19.2127 24.3029 19.6274C24.7675 19.6712 24.7675 20.3288 24.3029 20.3726C21.4046 20.7991 19.7522 20.9472 16.7677 21.0831C16.2107 21.1356 15.7267 21.4766 15.5028 21.9742C14.1904 24.4085 13.6083 25.8456 12.6009 28.4231C12.1648 29.3923 13.225 30.3558 14.193 29.8701C21.9506 26.3897 25.9312 24.4458 31.8743 20.9976C32.7086 20.5789 32.7086 19.4211 31.8743 19.0024C25.4029 15.3705 21.5491 13.4312 14.1931 10.1299C13.225 9.64416 12.1648 10.6077 12.6009 11.5769Z" fill="white"/>
</svg>
