<svg width="20" height="20" viewBox="0 0 20 20" fill="none" xmlns="http://www.w3.org/2000/svg">
<g id="Vector">
<path d="M16.9268 2.36962C17.2353 2.57805 17.4947 2.78525 17.7124 2.98306C18.0168 3.25972 18.164 3.69403 18.1072 4.28164C18.0501 4.87279 17.787 5.55735 17.3543 6.2016L17.267 6.3316C16.8204 5.80883 16.2103 5.23471 15.3827 4.67538C14.5535 4.115 13.7923 3.76307 13.1404 3.54438L13.2302 3.41069C13.663 2.76638 14.1965 2.26503 14.7205 1.9903C15.2411 1.71736 15.6961 1.69126 16.0651 1.86986C16.3295 1.99787 16.6184 2.16119 16.9268 2.36962Z" fill="white"/>
<path d="M14.6592 5.64129C15.5402 6.23665 16.0342 6.8108 16.2972 7.19354C16.3434 7.2611 16.3911 7.5304 16.1388 7.90607L12.6744 12.9755C12.364 13.4375 11.9828 13.7787 11.5881 13.9423C11.0247 14.1759 10.1244 14.5061 8.8326 14.8595C8.64161 14.9118 8.51311 14.8741 8.43652 14.8224C8.35972 14.7705 8.27585 14.6644 8.25223 14.4656C8.09362 13.1318 8.0605 12.1707 8.06472 11.559C8.06768 11.1296 8.24012 10.6465 8.55036 10.1846L12.0135 5.11701C12.2669 4.73978 12.533 4.68482 12.6104 4.70199C13.0624 4.80257 13.7783 5.04602 14.6592 5.64129Z" fill="white"/>
<path fill-rule="evenodd" clip-rule="evenodd" d="M10.0371 19.9991C6.74788 20.0113 4.44038 19.8963 2.98603 19.7836C1.52445 19.6703 0.392893 18.547 0.268758 17.0864C0.145236 15.6329 0.0130963 13.3263 0.000892771 10.0371C-0.0113107 6.74788 0.10371 4.44038 0.216443 2.98603C0.329735 1.52445 1.45293 0.392892 2.91363 0.268757C4.3671 0.145231 6.67368 0.0130963 9.9629 0.000892793C11.6318 -0.00529912 13.048 0.0212611 14.2282 0.0636569C14.3427 0.0677723 14.383 0.227204 14.2884 0.292006C13.7176 0.683168 13.2012 1.2289 12.786 1.84709L10.7969 4.80842C10.4277 5.35805 7.33374 9.87605 7.33374 9.87605C6.93437 10.4706 6.65118 11.1784 6.64617 11.9051C6.64159 12.5683 6.67773 13.5791 6.84197 14.9602C6.90116 15.4582 7.1436 15.893 7.54112 16.1616C7.93884 16.4304 8.43271 16.4929 8.9166 16.3604C10.2546 15.9943 11.2023 15.6482 11.8136 15.3947C12.4842 15.1167 13.0321 14.5871 13.4314 13.9926L16.8958 8.92317L18.8837 5.96369C19.1526 5.56346 19.3773 5.13537 19.5423 4.69954C19.5899 4.57377 19.8497 4.59881 19.8572 4.73307C19.9318 6.08002 19.9911 7.81121 19.9991 9.9629C20.0113 13.2521 19.8963 15.5596 19.7836 17.014C19.6703 18.4756 18.547 19.6071 17.0864 19.7312C15.6329 19.8548 13.3263 19.9869 10.0371 19.9991Z" fill="white"/>
</g>
</svg>
