<svg width="12" height="12" viewBox="0 0 12 12" fill="none" xmlns="http://www.w3.org/2000/svg">
<path fill-rule="evenodd" clip-rule="evenodd" d="M11.7938 5.9018C12.4493 5.24633 11.4682 3.6772 9.89549 2.10451C8.3228 0.531812 6.75367 -0.449252 6.0982 0.206215C5.70164 0.60277 5.8203 1.42199 6.32246 2.35511C5.12038 3.70204 4.3924 4.42514 3.00099 5.67659C2.06786 5.17443 1.24864 5.05577 0.851851 5.45256C0.264257 6.04016 0.804388 7.55376 2.05623 8.99451L0.60136 10.4494C0.45396 10.5968 0.342909 10.7765 0.27701 10.9742L0.00889598 11.7789C-0.0348144 11.91 0.0899725 12.0348 0.221147 11.9911L1.02576 11.723C1.22352 11.6571 1.40322 11.546 1.55062 11.3986L3.0055 9.94377C4.44624 11.1956 5.95984 11.7357 6.54744 11.1481C6.94423 10.7514 6.82557 9.93214 6.32341 8.99901C7.59992 7.60197 8.3252 6.86708 9.64489 5.67754C10.578 6.1797 11.3972 6.29836 11.7938 5.9018Z" fill="#7E53F8"/>
</svg>
