<svg width="24" height="24" viewBox="0 0 24 24" fill="none" xmlns="http://www.w3.org/2000/svg">
<path fill-rule="evenodd" clip-rule="evenodd" d="M12 2C6.54791 2 2 5.81596 2 10.6666C2 14.7568 5.24326 18.1185 9.52093 19.0647C9.53395 19.2789 9.54698 19.4709 9.56046 19.6416C9.64233 20.6714 10.3619 21.5491 11.4981 21.7331C11.7521 21.774 12.047 21.814 12.3888 21.85C12.4863 21.8603 12.5849 21.8508 12.6783 21.8221C12.7717 21.7935 12.8577 21.7464 12.9307 21.6839C13.0037 21.6213 13.0621 21.5448 13.1021 21.4593C13.1421 21.3737 13.1628 21.2811 13.1628 21.1874V19.9998C13.1628 19.823 13.2363 19.6534 13.3671 19.5284C13.498 19.4034 13.6754 19.3332 13.8605 19.3332C14.0455 19.3332 14.223 19.4034 14.3538 19.5284C14.4846 19.6534 14.5581 19.823 14.5581 19.9998V21.3309C14.5581 21.5065 14.6306 21.675 14.7598 21.7998C14.8891 21.9246 15.0646 21.9957 15.2484 21.9976C15.7213 22.0025 16.1942 22 16.667 21.99C16.8493 21.9861 17.0227 21.9141 17.1501 21.7895C17.2776 21.6649 17.3489 21.4976 17.3488 21.3234V19.9998C17.3488 19.823 17.4223 19.6534 17.5532 19.5284C17.684 19.4034 17.8615 19.3332 18.0465 19.3332C18.2315 19.3332 18.409 19.4034 18.5398 19.5284C18.6707 19.6534 18.7442 19.823 18.7442 19.9998V21.1323C18.7442 21.2276 18.7657 21.3217 18.807 21.4084C18.8484 21.4952 18.9087 21.5724 18.9839 21.6349C19.0592 21.6975 19.1476 21.7439 19.2432 21.771C19.3388 21.7982 19.4394 21.8054 19.5381 21.7922C19.6837 21.7731 19.8186 21.7531 19.9437 21.7331C21.08 21.5491 21.7995 20.6714 21.8814 19.6416C21.9437 18.8567 22 17.6341 22 15.7776V10.2221C22 10.1599 21.9907 10.0999 21.9744 10.043C21.6019 5.49063 17.2177 2 12 2ZM20.6047 11.5555C20.6047 10.3319 19.7619 9.55548 18.9767 9.55548C18.1916 9.55548 17.3488 10.3319 17.3488 11.5555C17.3488 12.779 18.1916 13.5554 18.9767 13.5554C19.7619 13.5554 20.6047 12.779 20.6047 11.5555ZM10.8372 11.5555C10.8372 10.3955 11.726 9.55548 12.6977 9.55548C13.6693 9.55548 14.5581 10.3955 14.5581 11.5555C14.5581 12.7155 13.6693 13.5554 12.6977 13.5554C11.726 13.5554 10.8372 12.7155 10.8372 11.5555Z" fill="#828DA2"/>
</svg>
