<svg width="24" height="24" viewBox="0 0 24 24" fill="none" xmlns="http://www.w3.org/2000/svg">
<path fill-rule="evenodd" clip-rule="evenodd" d="M8.81246 14.8636H13.7754C15.7034 14.8636 16.9844 14.7599 17.7853 14.6555C18.5714 14.553 19.1806 14.0054 19.4702 13.2861C20.0375 11.8768 20.5471 10.4661 20.8942 8.89106C21.137 7.78966 20.2627 6.81816 19.1705 6.81816H9.03031L8.31111 4.56214C8.0144 3.6313 7.15485 2.99997 6.18428 2.99997H4.27496C3.58737 2.99997 2.96712 3.50461 2.93988 4.22906C2.93682 4.31061 2.93506 4.39379 2.93506 4.47723C2.93506 4.56072 2.93682 4.64389 2.93988 4.72545C2.96712 5.44989 3.58737 5.95453 4.27496 5.95453H5.53905C6.41835 8.97123 6.99004 10.9178 7.94969 13.7904C7.78439 13.8575 7.64376 13.9868 7.5657 14.1638L7.1087 15.1994C6.79163 15.918 6.94393 16.6875 7.38402 17.2261C7.01747 17.6269 6.79366 18.1621 6.79366 18.75C6.79366 19.9926 7.7938 21 9.02747 21C10.2612 21 11.2613 19.9926 11.2613 18.75C11.2613 18.4613 11.2073 18.1854 11.109 17.9318H15.0689C14.9706 18.1854 14.9166 18.4613 14.9166 18.75C14.9166 19.9926 15.9168 21 17.1504 21C18.3842 21 19.3843 19.9926 19.3843 18.75C19.3843 17.5073 18.3842 16.5 17.1504 16.5H8.87162C8.50423 16.5 8.25853 16.1191 8.40769 15.7809L8.81246 14.8636Z" fill="#828DA2"/>
</svg>
