<svg width="32" height="32" viewBox="0 0 32 32" fill="none" xmlns="http://www.w3.org/2000/svg">
<path fill-rule="evenodd" clip-rule="evenodd" d="M11.1457 10.3056C11.6747 8.60646 13.5132 7 16.522 7C18.1214 7 19.4894 7.46666 20.4624 8.27811C21.4384 9.09192 22 10.2394 22 11.5582C22 13.4368 20.9919 14.7625 19.3798 15.7207L19.3741 15.7241C18.6283 16.1473 18.1926 16.4872 17.9377 16.8354C17.6923 17.1707 17.5945 17.5415 17.5945 18.0754V18.1045C17.5945 18.5223 17.4522 18.8882 17.1712 19.1494C16.8915 19.4092 16.5071 19.535 16.0815 19.535C15.6529 19.535 15.2667 19.4153 14.9863 19.1549C14.7044 18.8931 14.5685 18.5253 14.5685 18.1045V17.8863C14.5685 17.0295 14.7429 16.3081 15.1463 15.6736C15.5474 15.0426 16.1581 14.5239 16.984 14.0433C17.6767 13.6286 18.1131 13.2806 18.38 12.9191C18.6384 12.5689 18.7537 12.1842 18.7537 11.66C18.7537 11.1068 18.5276 10.6398 18.1332 10.3075C17.7359 9.97292 17.1481 9.75916 16.4045 9.75916C15.6962 9.75916 15.1736 9.92685 14.7823 10.2233C14.389 10.5214 14.0956 10.9744 13.8954 11.6023C13.7945 11.9421 13.6253 12.2272 13.3633 12.4255C13.0986 12.6259 12.7728 12.7123 12.4102 12.7123C11.9974 12.7123 11.6315 12.5886 11.3713 12.3207C11.1142 12.0559 11 11.691 11 11.2818C11 10.9618 11.0483 10.6271 11.145 10.3078L11.1457 10.3056ZM14.2601 23.1767C14.2601 22.1711 15.056 21.368 16.0962 21.368C17.153 21.368 17.9322 22.1731 17.9322 23.1767C17.9322 24.1764 17.157 25 16.0962 25C15.052 25 14.2601 24.1784 14.2601 23.1767Z" fill="#151A1D"/>
<path d="M16.522 7C13.5132 7 11.6747 8.60646 11.1457 10.3056L11.145 10.3078C11.0483 10.6271 11 10.9618 11 11.2818C11 11.691 11.1142 12.0559 11.3713 12.3207C11.6315 12.5886 11.9974 12.7123 12.4102 12.7123C12.7728 12.7123 13.0986 12.6259 13.3633 12.4255C13.6253 12.2272 13.7945 11.9421 13.8954 11.6023C14.0956 10.9744 14.389 10.5214 14.7823 10.2233C15.1736 9.92685 15.6962 9.75916 16.4045 9.75916C17.1481 9.75916 17.7359 9.97292 18.1332 10.3075C18.5276 10.6398 18.7537 11.1068 18.7537 11.66C18.7537 12.1842 18.6384 12.5689 18.38 12.9191C18.1131 13.2806 17.6767 13.6286 16.984 14.0433C16.1581 14.5239 15.5474 15.0426 15.1463 15.6736C14.7429 16.3081 14.5685 17.0295 14.5685 17.8863V18.1045C14.5685 18.5253 14.7044 18.8931 14.9863 19.1549C15.2667 19.4153 15.6529 19.535 16.0815 19.535C16.5071 19.535 16.8915 19.4092 17.1712 19.1494C17.4522 18.8882 17.5945 18.5223 17.5945 18.1045V18.0754C17.5945 17.5415 17.6923 17.1707 17.9377 16.8354C18.1926 16.4872 18.6283 16.1473 19.3741 15.7241L19.3798 15.7207C20.9919 14.7625 22 13.4368 22 11.5582C22 10.2394 21.4384 9.09192 20.4624 8.27811C19.4894 7.46666 18.1214 7 16.522 7Z" fill="white"/>
<path d="M16.0962 21.368C15.056 21.368 14.2601 22.1711 14.2601 23.1767C14.2601 24.1784 15.052 25 16.0962 25C17.157 25 17.9322 24.1764 17.9322 23.1767C17.9322 22.1731 17.153 21.368 16.0962 21.368Z" fill="white"/>
</svg>
