<svg width="16" height="16" viewBox="0 0 16 16" fill="none" xmlns="http://www.w3.org/2000/svg">
<path fill-rule="evenodd" clip-rule="evenodd" d="M8 0C3.58182 0 0 3.58182 0 8C0 12.4182 3.58182 16 8 16C12.4182 16 16 12.4182 16 8C16 3.58182 12.4182 0 8 0Z" fill="#FD6642"/>
<path d="M8.04819 9.64192C8.56353 9.64192 8.83672 9.32494 8.85535 8.78609L8.94848 4.39919C8.95469 4.3358 8.95469 4.25972 8.95469 4.20901C8.95469 3.62578 8.60699 3.27711 8.0544 3.27711C7.4956 3.27711 7.1417 3.62578 7.1417 4.20901C7.1417 4.25972 7.1479 4.3358 7.1479 4.39919L7.24725 8.78609C7.25966 9.32494 7.53286 9.64192 8.04819 9.64192ZM8.04819 12.7229C8.6132 12.7229 9.06024 12.2855 9.06024 11.7276C9.06024 11.1697 8.6132 10.7323 8.04819 10.7323C7.48318 10.7323 7.03614 11.1697 7.03614 11.7276C7.03614 12.2855 7.48318 12.7229 8.04819 12.7229Z" fill="white"/>
</svg>
