<svg width="16" height="16" viewBox="0 0 16 16" fill="none" xmlns="http://www.w3.org/2000/svg">
<path d="M7.22268 8.50755C7.32996 8.57049 7.39528 8.69017 7.39281 8.81849C7.34981 11.0514 7.35877 12.4414 7.38989 14.9998C7.39306 15.2602 7.13059 15.4323 6.90665 15.3169C4.83557 14.2499 3.45297 13.5755 1.62739 12.297C1.28498 12.0572 1.07535 11.659 1.05814 11.2293C0.936617 8.19701 1.02951 6.77863 1.16414 5.50541C1.19025 5.25853 1.45021 5.12107 1.65783 5.24287L7.22268 8.50755Z" fill="#7E53F8"/>
<path d="M2.0466 3.75294C1.87878 3.91284 1.90922 4.19835 2.1065 4.31615C4.30662 5.62986 5.474 6.36712 7.82748 7.65578C7.93054 7.71221 8.05547 7.70882 8.15495 7.64579C9.20469 6.98074 10.0111 6.39867 10.787 5.91442C10.892 5.8489 10.8969 5.69088 10.7961 5.61861C7.62831 3.34819 5.99414 2.68143 4.46775 2.08895C4.42495 2.07234 4.3769 2.07509 4.33594 2.09615C3.16693 2.69717 2.71084 3.12006 2.0466 3.75294Z" fill="#7E53F8"/>
<path d="M14.0213 4.10278C14.1501 4.04381 14.1566 3.85522 14.0317 3.78768L8.59863 0.84757C8.14109 0.599972 7.60869 0.543242 7.11627 0.702255C6.14928 1.01451 5.67608 1.21569 5.26357 1.44542C5.13811 1.51529 5.1564 1.70494 5.29066 1.75391C6.98023 2.37022 8.71006 3.107 11.4934 5.12329C11.5915 5.19438 11.7197 5.2068 11.8279 5.15394C12.6371 4.75868 13.2025 4.47783 14.0213 4.10278Z" fill="#7E53F8"/>
<path d="M8.91057 8.38104C8.80681 8.44488 8.74342 8.56309 8.74578 8.68867C8.79169 11.1331 8.79565 12.6445 8.77924 15.0394C8.77749 15.2936 9.02773 15.4631 9.24765 15.3533C10.2059 14.8749 12.4528 13.7067 14.3984 12.3441C14.7407 12.1043 14.9464 11.7051 14.9592 11.2754C15.0338 8.77489 14.9842 6.41212 14.9541 5.37141C14.9467 5.11388 14.6817 4.95894 14.4648 5.0824C12.5823 6.15394 11.2268 6.95624 8.91057 8.38104Z" fill="#7E53F8"/>
<path fill-rule="evenodd" clip-rule="evenodd" d="M7.11577 0.700593C7.60863 0.541439 8.14148 0.598225 8.5994 0.846026L14.0325 3.78613C14.1586 3.85435 14.152 4.04482 14.022 4.10437C13.3178 4.42689 12.8011 4.67974 12.1556 4.99562C12.0505 5.04706 11.9419 5.10017 11.8286 5.15552C11.7199 5.20865 11.591 5.19615 11.4924 5.12472C8.70925 3.10854 6.97956 2.37182 5.29011 1.75555C5.15457 1.70611 5.13596 1.51451 5.26278 1.44388C5.67543 1.21408 6.14874 1.01286 7.11577 0.700593ZM8.59786 0.849115C8.1407 0.60172 7.60875 0.545044 7.11676 0.703917C6.14982 1.01616 5.67673 1.2173 5.26435 1.44695C5.14026 1.51606 5.15823 1.70376 5.29121 1.75227C6.9809 2.36863 8.71087 3.10547 11.4943 5.12186C11.592 5.1926 11.7195 5.20496 11.8272 5.15237C11.9405 5.09702 12.049 5.04391 12.1542 4.99247C12.7997 4.6766 13.3164 4.42372 14.0206 4.10118C14.1481 4.0428 14.1545 3.85608 14.031 3.78922L8.59786 0.849115ZM4.46717 2.09058C4.4248 2.07414 4.37723 2.07686 4.33668 2.09771C3.16786 2.69863 2.7119 3.12141 2.04772 3.75422C1.88074 3.91333 1.91103 4.19742 2.10733 4.31464C2.58348 4.59895 3.01127 4.85627 3.41317 5.09802C4.8683 5.9733 5.98414 6.64449 7.82825 7.65424C7.9308 7.71039 8.0551 7.70701 8.15408 7.6443C8.67893 7.31179 9.14295 7.00002 9.57276 6.71084L9.60073 6.69202C10.0198 6.41009 10.4066 6.14981 10.7862 5.91293C10.8901 5.84806 10.895 5.69159 10.7951 5.62004C7.6275 3.34972 5.99346 2.68302 4.46717 2.09058ZM4.3352 2.09459C4.37657 2.07332 4.42509 2.07054 4.46833 2.08732C5.99483 2.67984 7.62912 3.34666 10.797 5.61717C10.8989 5.69016 10.8939 5.84974 10.7879 5.91591C10.4084 6.15276 10.0216 6.41301 9.60253 6.69495L9.57457 6.71377C9.14476 7.00295 8.68071 7.31474 8.15581 7.64728C8.05582 7.71062 7.93027 7.71404 7.8267 7.65733C5.98253 6.64754 4.86662 5.97631 3.41148 5.10102C3.00958 4.85928 2.58181 4.60197 2.10567 4.31766C1.90741 4.19927 1.87681 3.91235 2.04547 3.75165C2.70978 3.11872 3.166 2.69571 4.3352 2.09459ZM14.9524 5.37146C14.945 5.11526 14.6815 4.96108 14.4656 5.08393C12.5831 6.15546 11.2276 6.95775 8.91142 8.38254C8.80817 8.44606 8.7451 8.56368 8.74745 8.68864C8.79336 11.1331 8.79732 12.6445 8.7809 15.0394C8.77917 15.2924 9.02814 15.461 9.24693 15.3518C10.2052 14.8734 12.4519 13.7052 14.3974 12.3426C14.7393 12.1032 14.9448 11.7045 14.9576 11.2753C15.0321 8.77489 14.9825 6.41216 14.9524 5.37146ZM14.464 5.08088C14.682 4.95681 14.9483 5.1125 14.9558 5.37135C14.9858 6.41209 15.0355 8.77489 14.9609 11.2754C14.9481 11.7057 14.7421 12.1054 14.3993 12.3455C12.4536 13.7082 10.2067 14.8765 9.24837 15.3549C9.0273 15.4653 8.77582 15.2949 8.77757 15.0394C8.79398 12.6445 8.79002 11.1331 8.74411 8.68871C8.74174 8.56249 8.80544 8.4437 8.90973 8.37955C11.226 6.95473 12.5815 6.15242 14.464 5.08088ZM1.16249 5.50522C1.18872 5.25708 1.45 5.11895 1.65865 5.24135L7.2235 8.50604C7.33132 8.56929 7.39696 8.68957 7.39448 8.81852C7.35148 11.0514 7.36044 12.4414 7.39156 14.9998C7.39474 15.2615 7.13097 15.4344 6.90591 15.3185C6.7111 15.2181 6.52238 15.1212 6.33881 15.027C4.57081 14.1193 3.28042 13.4568 1.62646 12.2985C1.2836 12.0584 1.07371 11.6596 1.05647 11.2294C0.934946 8.197 1.02784 6.77854 1.16249 5.50522ZM1.65701 5.24439C1.45042 5.12319 1.19178 5.25997 1.1658 5.5056C1.03118 6.77872 0.938288 8.19701 1.0598 11.2292C1.077 11.6583 1.28636 12.0561 1.62832 12.2956C3.28208 13.4538 4.57228 14.1161 6.34028 15.0238C6.52385 15.1181 6.71258 15.215 6.90739 15.3153C7.13022 15.4301 7.39137 15.2589 7.38822 14.9998C7.3571 12.4414 7.34814 11.0514 7.39114 8.81845C7.3936 8.69077 7.3286 8.57169 7.22186 8.50907L1.65701 5.24439Z" fill="#7E53F8"/>
</svg>
